<svg width="113" height="120" viewBox="0 0 113 120" fill="none" xmlns="http://www.w3.org/2000/svg">
<path d="M82.9755 50.9114C84.8313 61.4365 78.9973 68.8066 68.1176 70.725C59.8058 72.1906 52.8172 69.7045 49.5302 63.8844C49.1346 63.1839 49.0574 62.3481 49.3169 61.5867C49.5763 60.8253 50.1479 60.2081 50.8892 59.8959L55.7547 57.846C56.9123 57.3583 58.2498 57.6952 59.0402 58.6715C60.4937 60.4669 62.8551 61.4701 65.9616 60.9224C70.3964 60.1404 72.8047 56.85 72.0019 52.2973L69.0616 35.6221L52.0293 38.6253C50.4956 38.8957 49.0331 37.8717 48.7627 36.338L48.0635 32.3726C47.793 30.8389 48.8171 29.3763 50.3508 29.1059L75.4857 24.6739C77.0194 24.4035 78.482 25.4276 78.7524 26.9613L82.9755 50.9114ZM104.287 17.3779C102.271 5.94228 91.3661 -1.69346 79.9306 0.322937L34.6717 8.30328C29.1802 9.27157 24.2983 12.3818 21.0998 16.9496L3.80248 41.6528C0.60407 46.2205 -0.648793 51.8718 0.319506 57.3633L8.29986 102.622C10.3163 114.058 21.2212 121.693 32.6568 119.677L77.9156 111.697C83.4071 110.728 88.2892 107.618 91.4875 103.05L108.785 78.3473C111.983 73.7795 113.236 68.1282 112.268 62.6366L104.287 17.3779ZM104.037 64.3913C105.247 71.2527 100.666 77.7957 93.8044 79.0055L48.2513 87.0378C41.39 88.2476 34.847 83.6662 33.6371 76.8048L25.6049 31.2517C24.3951 24.3904 28.9765 17.8474 35.8378 16.6376L81.391 8.60533C88.2523 7.39551 94.7953 11.9769 96.0051 18.8383L104.037 64.3913Z" fill="#6868F7"/>
</svg>
